<?xml version="1.0" encoding="UTF-8"?><svg id="Layer_1" xmlns="http://www.w3.org/2000/svg" viewBox="0 0 240 183.59"><defs><style>.cls-1{fill:#fff;}.cls-2{fill:#26a9e0;}.cls-3{fill:#4bc2ec;}</style></defs><g><path class="cls-1" d="M63.61,179.72c-16.15,0-31.22-6.22-42.44-17.52-11.15-11.23-17.29-26.22-17.29-42.21,0-31.95,25.22-58.13,56.8-59.66C62.91,29.35,89.97,3.87,121.57,3.87c15.46,0,30.13,5.96,41.31,16.78,10.61,10.26,17.52,24.79,18.96,39.85,13.62,1.27,26.46,7.3,36.46,17.2,11.49,11.37,17.82,26.39,17.82,42.28,0,30.04-22.46,55.52-52.24,59.27l-.22,.03-27.1,.35-38.14-38.32c-4.45,6.56-9.97,14.09-16.22,20.43-11.93,12.1-24.56,17.98-38.6,17.98Zm-4.23-97.74c-8.77,.97-16.94,4.97-23.17,11.36-6.99,7.19-10.84,16.65-10.84,26.64s3.92,19.89,11.05,27.07c7.16,7.21,16.81,11.17,27.19,11.17,16.16,0,28.35-15.66,39.35-32.46l-43.58-43.79Zm121.22,76.02c8.78-.96,16.96-4.96,23.19-11.36,6.99-7.19,10.84-16.65,10.84-26.65s-4.06-19.7-11.44-27c-7.33-7.25-16.84-11.24-26.8-11.24-8.76,0-16.68,3.91-24.92,12.3-5.7,5.81-10.88,13.07-15.33,19.77l44.45,44.17Zm-59.97-59.61c5.23-7.64,11.86-16.41,19.66-23.36,6.48-5.78,13.09-9.78,20.13-12.17v-.66c-1.03-9.92-5.57-19.43-12.47-26.11-7.15-6.92-16.51-10.73-26.37-10.73s-20.23,4.26-27.74,11.68c-6.5,6.42-10.57,14.6-11.57,23.2l38.37,38.13Z"/><path class="cls-3" d="M121.57,7.74c14.45,0,28.17,5.57,38.62,15.69,9.96,9.64,16.45,23.29,17.8,37.46v.06s.26,3.2,.26,3.2c13.94,.47,27.14,6.22,37.33,16.31,10.75,10.64,16.67,24.68,16.67,39.53,0,28.43-21.35,51.97-48.85,55.43l-25.25,.32-40.33-40.52c-5.67,8.64-11.65,16.98-18.38,23.8-11.16,11.32-22.89,16.83-35.85,16.83-15.11,0-29.21-5.82-39.7-16.38-10.43-10.5-16.17-24.52-16.17-39.49,0-30.8,25.06-55.87,55.87-55.87h.78c.21-30.6,26.31-56.37,57.18-56.37m-.35,96.69c6.32-9.56,13.33-19.12,21.64-26.52,6.83-6.09,13.9-10.13,21.39-12.19l.02-.96,.02-2.74c-1.08-10.9-6.06-21.35-13.66-28.71-7.88-7.62-18.2-11.82-29.06-11.82s-22.23,4.67-30.46,12.8c-7.64,7.55-12.17,17.23-12.87,27.42l42.98,42.72m57.92,57.57c10.4-.67,20.09-5.14,27.42-12.68,7.7-7.91,11.94-18.33,11.94-29.34s-4.47-21.72-12.59-29.75c-8.06-7.97-18.54-12.36-29.52-12.36-9.87,0-18.66,4.28-27.68,13.46-6.39,6.51-12.19,14.8-17.54,23l47.96,47.67m-115.53,.09c18.51,0,31.47-16.95,44.3-36.84l-47.07-47.29c-10.39,.67-20.08,5.14-27.41,12.68-7.7,7.91-11.94,18.33-11.94,29.34s4.32,21.89,12.17,29.79c7.89,7.94,18.52,12.32,29.94,12.32M121.57,0c-8.59,0-16.99,1.72-24.97,5.13-7.66,3.26-14.58,7.91-20.56,13.82-5.99,5.91-10.72,12.75-14.06,20.34-2.47,5.62-4.1,11.45-4.85,17.42C25.09,59.96,0,87.09,0,119.98c0,17.03,6.54,32.99,18.42,44.94,11.96,12.04,28,18.66,45.19,18.66,15.14,0,28.67-6.26,41.36-19.14,5.25-5.33,9.98-11.42,14-17.12l33.7,33.86,2.31,2.32,3.28-.04,25.25-.32h.43s.43-.06,.43-.06c31.71-3.99,55.63-31.12,55.63-63.11,0-16.94-6.74-32.93-18.97-45.03-9.88-9.77-22.36-16-35.7-17.93-2.13-14.84-9.23-28.97-19.75-39.15C153.67,6.34,138.04,0,121.57,0h0Zm-35.2,58.88c1.23-7.06,4.77-13.73,10.18-19.08,6.8-6.71,15.92-10.57,25.02-10.57s17.25,3.42,23.68,9.64c5.72,5.53,9.65,13.22,11,21.4-6.45,2.61-12.56,6.52-18.54,11.86-6.81,6.07-12.72,13.42-17.62,20.26l-33.72-33.52h0Zm54.78,54.44c3.92-5.77,8.34-11.72,13.1-16.57,7.56-7.71,14.4-11.14,22.15-11.14,8.93,0,17.48,3.59,24.07,10.12,6.64,6.57,10.3,15.18,10.3,24.25s-3.46,17.49-9.75,23.95c-5.17,5.32-11.84,8.79-19.05,9.97l-40.83-40.58h0Zm-77.54,41.03c-9.34,0-18.02-3.56-24.45-10.03-6.4-6.44-9.92-15.09-9.92-24.34s3.46-17.49,9.74-23.95c5.16-5.31,11.82-8.78,19.01-9.97l40,40.19c-4.79,7.15-9.92,14.08-15.4,19.23-6.44,6.05-12.47,8.86-18.98,8.86h0Z"/></g><g><polygon class="cls-2" points="169.71 172.37 124.31 126.97 120.58 132.69 160.26 172.37 169.71 172.37"/><path class="cls-2" d="M176.39,172.31h-1.38l-52.04-51.72c-.37,.58-.73,1.16-1.1,1.74-15.52,24.57-31.57,49.98-58.27,49.98-14.16,0-27.37-5.45-37.19-15.33-9.76-9.83-15.14-22.97-15.14-36.99,0-28.85,23.47-52.33,52.33-52.33h1.38l48.33,48.33-3.8,5.65-47.27-47.27c-24.54,.72-44.28,20.91-44.28,45.63,0,12.25,4.69,23.72,13.2,32.29,8.56,8.62,20.08,13.36,32.45,13.36,23.02,0,37.4-22.76,52.62-46.87,.63-1,1.26-2,1.89-3l-50.2-49.89v-1.39c0-28.84,24.57-53.2,53.65-53.2,13.01,0,26.11,4.96,36.16,14.69,9.66,9.35,15.52,22.45,16.74,35.25l.22,2.75s-.95-.2-3.24,.01-3.64,.8-3.64,.8l.02-2.93c-1.08-11.24-6.2-22.82-14.74-31.09-8.8-8.52-20.25-12.81-31.52-12.81-12.05,0-24.06,5.04-32.95,13.82-8.7,8.59-13.63,19.67-13.99,31.33l47.18,46.89c14.27-22.06,29.95-42.35,54.59-42.35,13.69,0,26.72,5.44,36.7,15.31,10.08,9.97,15.62,23.11,15.62,37.01,0,28.85-23.47,52.33-52.33,52.33Zm-49.74-57.49l51.1,50.79c24.54-.72,44.29-20.91,44.29-45.63,0-12.1-4.85-23.56-13.64-32.26-8.72-8.63-20.09-13.38-32-13.38-10.88,0-20.48,4.61-30.2,14.52-7.03,7.17-13.42,16.45-19.54,25.97Z"/></g></svg>